<svg width="18" height="21" viewBox="0 0 18 21" fill="none" xmlns="http://www.w3.org/2000/svg">
<path d="M17.0312 6.75H0.46875C0.195312 6.75 0 6.55469 0 6.28125V4.875C0 3.85938 0.820312 3 1.875 3H3.75V0.96875C3.75 0.734375 3.94531 0.5 4.21875 0.5H5.78125C6.01562 0.5 6.25 0.734375 6.25 0.96875V3H11.25V0.96875C11.25 0.734375 11.4453 0.5 11.7188 0.5H13.2812C13.5156 0.5 13.75 0.734375 13.75 0.96875V3H15.625C16.6406 3 17.5 3.85938 17.5 4.875V6.28125C17.5 6.55469 17.2656 6.75 17.0312 6.75ZM0.46875 8H17.0312C17.2656 8 17.5 8.23438 17.5 8.46875V18.625C17.5 19.6797 16.6406 20.5 15.625 20.5H1.875C0.820312 20.5 0 19.6797 0 18.625V8.46875C0 8.23438 0.195312 8 0.46875 8ZM13.4766 11.75L12.3828 10.6562C12.1875 10.4609 11.875 10.4609 11.7188 10.6562L7.57812 14.7578L5.78125 12.9609C5.58594 12.7656 5.27344 12.7656 5.11719 12.9609L3.98438 14.0547C3.82812 14.25 3.82812 14.5234 3.98438 14.7188L7.22656 17.9609C7.38281 18.1562 7.69531 18.1562 7.89062 17.9609L13.4766 12.4141C13.6328 12.2578 13.6328 11.9453 13.4766 11.75Z" fill="#BD95C5"/>
</svg>
