<svg width="297" height="20" viewBox="0 0 297 20" fill="none" xmlns="http://www.w3.org/2000/svg">
<path d="M284.959 15H281.817V4.81818H285.098C286.086 4.81818 286.931 5.02202 287.633 5.42969C288.336 5.83404 288.875 6.41572 289.249 7.17472C289.624 7.9304 289.811 8.83523 289.811 9.8892C289.811 10.9498 289.622 11.8629 289.244 12.6286C288.866 13.3909 288.316 13.9775 287.594 14.3885C286.871 14.7962 285.993 15 284.959 15ZM283.05 13.9062H284.879C285.721 13.9062 286.419 13.7438 286.972 13.419C287.526 13.0942 287.938 12.6319 288.21 12.032C288.482 11.4321 288.618 10.7178 288.618 9.8892C288.618 9.06723 288.484 8.35961 288.215 7.76633C287.947 7.16974 287.546 6.71236 287.012 6.39418C286.478 6.07268 285.814 5.91193 285.018 5.91193H283.05V13.9062Z" fill="#938F99"/>
<path d="M29.4705 15V4.81818H30.7034V13.9062H35.4364V15H29.4705Z" fill="#938F99"/>
<path d="M69.2555 4.81818H70.7271L74.1873 13.2699H74.3067L77.7669 4.81818H79.2385V15H78.0851V7.2642H77.9856L74.8038 15H73.6902L70.5084 7.2642H70.4089V15H69.2555V4.81818Z" fill="#938F99"/>
<path d="M113.168 4.81818L115.793 9.05398H115.873L118.498 4.81818H119.95L116.748 9.90909L119.95 15H118.498L115.873 10.8438H115.793L113.168 15H111.717L114.998 9.90909L111.717 4.81818H113.168Z" fill="#938F99"/>
<path d="M158.74 4.81818H159.973V12.0966C159.973 12.7462 159.854 13.2981 159.615 13.7521C159.376 14.2062 159.04 14.5509 158.606 14.7862C158.172 15.0215 157.659 15.1392 157.069 15.1392C156.513 15.1392 156.017 15.0381 155.583 14.8359C155.149 14.6304 154.807 14.3388 154.559 13.9609C154.31 13.5831 154.186 13.134 154.186 12.6136H155.399C155.399 12.902 155.47 13.1539 155.613 13.3693C155.759 13.5814 155.957 13.7472 156.209 13.8665C156.461 13.9858 156.748 14.0455 157.069 14.0455C157.424 14.0455 157.726 13.9709 157.974 13.8217C158.223 13.6726 158.412 13.4538 158.541 13.1655C158.674 12.8738 158.74 12.5175 158.74 12.0966V4.81818Z" fill="#938F99"/>
<path d="M196.9 4.81818L199.923 13.3892H200.042L203.065 4.81818H204.358L200.619 15H199.346L195.608 4.81818H196.9Z" fill="#938F99"/>
<path d="M245.382 7.36364C245.323 6.85985 245.081 6.46875 244.656 6.19034C244.232 5.91193 243.712 5.77273 243.095 5.77273C242.644 5.77273 242.25 5.84564 241.912 5.99148C241.577 6.13731 241.315 6.33783 241.126 6.59304C240.941 6.84825 240.848 7.13826 240.848 7.46307C240.848 7.73485 240.913 7.96851 241.042 8.16406C241.175 8.3563 241.344 8.51705 241.549 8.64631C241.755 8.77225 241.97 8.87666 242.195 8.95952C242.421 9.03906 242.628 9.10369 242.817 9.15341L243.851 9.43182C244.116 9.50142 244.411 9.59754 244.736 9.72017C245.064 9.8428 245.377 10.0102 245.676 10.2223C245.977 10.4311 246.226 10.6996 246.421 11.0277C246.617 11.3558 246.715 11.7585 246.715 12.2358C246.715 12.786 246.57 13.2831 246.282 13.7273C245.997 14.1714 245.579 14.5244 245.029 14.7862C244.482 15.0481 243.818 15.179 243.036 15.179C242.306 15.179 241.675 15.0613 241.141 14.826C240.611 14.5907 240.193 14.2625 239.889 13.8416C239.587 13.4207 239.416 12.9318 239.376 12.375H240.649C240.682 12.7595 240.812 13.0777 241.037 13.3295C241.266 13.5781 241.554 13.7637 241.902 13.8864C242.253 14.0057 242.631 14.0653 243.036 14.0653C243.506 14.0653 243.929 13.9891 244.303 13.8366C244.678 13.6809 244.975 13.4654 245.193 13.1903C245.412 12.9119 245.521 12.5871 245.521 12.2159C245.521 11.8778 245.427 11.6027 245.238 11.3906C245.049 11.1785 244.801 11.0062 244.492 10.8736C244.184 10.741 243.851 10.625 243.493 10.5256L242.24 10.1676C241.445 9.93892 240.815 9.61245 240.351 9.18821C239.887 8.76397 239.655 8.20881 239.655 7.52273C239.655 6.95265 239.809 6.45549 240.117 6.03125C240.429 5.60369 240.846 5.27225 241.37 5.03693C241.897 4.7983 242.485 4.67898 243.135 4.67898C243.791 4.67898 244.375 4.79664 244.885 5.03196C245.395 5.26397 245.8 5.58215 246.098 5.98651C246.4 6.39086 246.559 6.8499 246.575 7.36364H245.382Z" fill="#938F99"/>
</svg>
