<svg width="41" height="45" viewBox="0 0 41 45" fill="none" xmlns="http://www.w3.org/2000/svg">
<mask id="path-1-inside-1_28_1499" fill="white">
<path d="M0 8.00001C0 3.58173 3.58172 0 8 0H32.58C36.9983 0 40.58 3.58172 40.58 8V36.58C40.58 40.9983 36.9983 44.58 32.58 44.58H8.00001C3.58173 44.58 0 40.9983 0 36.58V8.00001Z"/>
</mask>
<path d="M0 8.00001C0 3.58173 3.58172 0 8 0H32.58C36.9983 0 40.58 3.58172 40.58 8V36.58C40.58 40.9983 36.9983 44.58 32.58 44.58H8.00001C3.58173 44.58 0 40.9983 0 36.58V8.00001Z" fill="#F9F8F6"/>
<path d="M8 0V1H32.58V0V-1H8V0ZM40.58 8H39.58V36.58H40.58H41.58V8H40.58ZM32.58 44.58V43.58H8.00001V44.58V45.58H32.58V44.58ZM0 36.58H1V8.00001H0H-1V36.58H0ZM8.00001 44.58V43.58C4.13401 43.58 1 40.446 1 36.58H0H-1C-1 41.5506 3.02945 45.58 8.00001 45.58V44.58ZM40.58 36.58H39.58C39.58 40.446 36.446 43.58 32.58 43.58V44.58V45.58C37.5506 45.58 41.58 41.5506 41.58 36.58H40.58ZM32.58 0V1C36.446 1 39.58 4.13401 39.58 8H40.58H41.58C41.58 3.02944 37.5506 -1 32.58 -1V0ZM8 0V-1C3.02944 -1 -1 3.02945 -1 8.00001H0H1C1 4.13401 4.13401 1 8 1V0Z" fill="#F9F8F6" mask="url(#path-1-inside-1_28_1499)"/>
<path d="M17.1057 27.78V26.8851L20.4665 23.2062C20.8609 22.7753 21.1858 22.4008 21.441 22.0826C21.6962 21.7611 21.8851 21.4595 22.0077 21.1778C22.1337 20.8927 22.1966 20.5944 22.1966 20.2829C22.1966 19.9249 22.1105 19.615 21.9381 19.3532C21.7691 19.0913 21.5371 18.8892 21.2421 18.7466C20.9471 18.6041 20.6157 18.5329 20.2478 18.5329C19.8567 18.5329 19.5153 18.6141 19.2236 18.7765C18.9353 18.9356 18.7116 19.1593 18.5525 19.4476C18.3967 19.736 18.3188 20.0741 18.3188 20.4618H17.1455C17.1455 19.8653 17.2831 19.3416 17.5581 18.8908C17.8332 18.4401 18.2078 18.0887 18.6817 17.8368C19.159 17.585 19.6943 17.459 20.2876 17.459C20.8841 17.459 21.4128 17.585 21.8735 17.8368C22.3342 18.0887 22.6955 18.4285 22.9573 18.856C23.2191 19.2836 23.3501 19.7592 23.3501 20.2829C23.3501 20.6574 23.2821 21.0236 23.1462 21.3816C23.0136 21.7362 22.7816 22.1323 22.4502 22.5698C22.1221 23.004 21.6663 23.5343 21.083 24.1607L18.7961 26.6067V26.6863H23.529V27.78H17.1057Z" fill="#3B3A32"/>
</svg>
