<svg width="41" height="45" viewBox="0 0 41 45" fill="none" xmlns="http://www.w3.org/2000/svg">
<g opacity="0.3">
<mask id="path-1-inside-1_28_1498" fill="white">
<path d="M0 8.00001C0 3.58173 3.58172 0 8 0H32.58C36.9983 0 40.58 3.58172 40.58 8V36.58C40.58 40.9983 36.9983 44.58 32.58 44.58H8.00001C3.58173 44.58 0 40.9983 0 36.58V8.00001Z"/>
</mask>
<path d="M0 8.00001C0 3.58173 3.58172 0 8 0H32.58C36.9983 0 40.58 3.58172 40.58 8V36.58C40.58 40.9983 36.9983 44.58 32.58 44.58H8.00001C3.58173 44.58 0 40.9983 0 36.58V8.00001Z" fill="#D9D9D9"/>
<path d="M8 0V1H32.58V0V-1H8V0ZM40.58 8H39.58V36.58H40.58H41.58V8H40.58ZM32.58 44.58V43.58H8.00001V44.58V45.58H32.58V44.58ZM0 36.58H1V8.00001H0H-1V36.58H0ZM8.00001 44.58V43.58C4.13401 43.58 1 40.446 1 36.58H0H-1C-1 41.5506 3.02945 45.58 8.00001 45.58V44.58ZM40.58 36.58H39.58C39.58 40.446 36.446 43.58 32.58 43.58V44.58V45.58C37.5506 45.58 41.58 41.5506 41.58 36.58H40.58ZM32.58 0V1C36.446 1 39.58 4.13401 39.58 8H40.58H41.58C41.58 3.02944 37.5506 -1 32.58 -1V0ZM8 0V-1C3.02944 -1 -1 3.02945 -1 8.00001H0H1C1 4.13401 4.13401 1 8 1V0Z" fill="#F9F8F6" mask="url(#path-1-inside-1_28_1498)"/>
<path d="M21.6697 17.5982V27.78H20.4367V18.8908H20.377L17.8912 20.5414V19.2886L20.4367 17.5982H21.6697Z" fill="#3B3A32"/>
</g>
</svg>
