<svg width="15" height="15" viewBox="0 0 11 12" fill="none" xmlns="http://www.w3.org/2000/svg">
  <path d="M4.70312 2.07031L5.21875 1.55469C5.45312 1.34375 5.80469 1.34375 6.01562 1.55469L10.5859 6.10156C10.7969 6.33594 10.7969 6.6875 10.5859 6.89844L6.01562 11.4688C5.80469 11.6797 5.45312 11.6797 5.21875 11.4688L4.70312 10.9531C4.49219 10.7188 4.49219 10.3672 4.70312 10.1328L7.53906 7.4375H0.8125C0.484375 7.4375 0.25 7.20312 0.25 6.875V6.125C0.25 5.82031 0.484375 5.5625 0.8125 5.5625H7.53906L4.70312 2.89062C4.49219 2.65625 4.46875 2.30469 4.70312 2.07031Z" fill="#3E3D35"/>
</svg>
