<svg width="11" height="12" viewBox="0 0 11 12" fill="none" xmlns="http://www.w3.org/2000/svg">
<path d="M6.27344 10.9531L5.75781 11.4688C5.52344 11.6797 5.17188 11.6797 4.96094 11.4688L0.414062 6.89844C0.179688 6.6875 0.179688 6.33594 0.414062 6.125L4.96094 1.55469C5.17188 1.34375 5.54688 1.34375 5.75781 1.55469L6.27344 2.07031C6.50781 2.30469 6.48438 2.65625 6.27344 2.89062L3.4375 5.5625H10.1875C10.4922 5.5625 10.75 5.82031 10.75 6.125V6.875C10.75 7.20312 10.4922 7.4375 10.1875 7.4375H3.4375L6.27344 10.1328C6.48438 10.3672 6.50781 10.7188 6.27344 10.9531Z" fill="#3E3D35"/>
</svg>
