<svg width="15" height="12" viewBox="0 0 15 12" fill="none" xmlns="http://www.w3.org/2000/svg">
<path d="M7.13478 2.94531C7.18556 2.89453 7.26173 2.86914 7.33791 2.86914C7.38869 2.86914 7.46486 2.89453 7.51564 2.94531L12.2129 6.7793V10.9434C12.2129 11.1719 12.0098 11.3496 11.8067 11.3496H8.93752C8.73439 11.3496 8.53127 11.1719 8.53127 10.9434V8.50586C8.53127 8.30273 8.35353 8.09961 8.12502 8.09961H6.50002C6.29689 8.09961 6.09377 8.30273 6.09377 8.50586V10.9434C6.09377 11.1719 5.91603 11.3496 5.71291 11.3496H2.86916C2.64064 11.3496 2.46291 11.1719 2.46291 10.9434V6.80469L7.13478 2.94531ZM14.5235 5.56055C14.5996 5.61133 14.6504 5.71289 14.6504 5.78906C14.6504 5.86523 14.625 5.94141 14.5742 5.99219L13.9141 6.7793C13.8633 6.85547 13.7871 6.88086 13.6856 6.88086C13.6094 6.88086 13.5332 6.85547 13.4824 6.80469L7.51564 1.9043C7.46486 1.85352 7.38869 1.82812 7.33791 1.82812C7.26173 1.82812 7.18556 1.85352 7.13478 1.9043L1.16798 6.80469C1.1172 6.85547 1.04103 6.88086 0.96486 6.88086C0.863297 6.88086 0.787126 6.85547 0.736344 6.7793L0.0761881 5.99219C0.0507975 5.94141 1.62125e-05 5.86523 1.62125e-05 5.78906C1.62125e-05 5.71289 0.0507975 5.61133 0.126969 5.56055L6.5508 0.253906C6.75392 0.101562 7.03322 0 7.33791 0C7.6172 0 7.8965 0.101562 8.09963 0.253906L10.3848 2.13281V0.304688C10.3848 0.126953 10.5117 0 10.6895 0H12.1113C12.2637 0 12.416 0.126953 12.416 0.304688V3.80859L14.5235 5.56055Z" fill="#3E3D35"/>
</svg>
