<svg width="17" height="14" viewBox="0 0 17 14" fill="none" xmlns="http://www.w3.org/2000/svg">
<path d="M15.5586 5C15.668 5 15.7773 5.10938 15.7773 5.21875C15.75 5.98438 15.5586 8.66406 13.3438 10.6875C11.0469 12.9023 8.77734 12.875 7.90234 12.875C7.02734 12.875 4.73047 12.9023 2.43359 10.6875C0.21875 8.66406 0.0273438 5.98438 0.0273438 5.21875C0 5.10938 0.109375 5 0.21875 5C1.01172 5.02734 3.91016 5.19141 6.07031 7.26953C6.97266 8.08984 7.51953 9.01953 7.90234 9.86719C8.25781 9.01953 8.80469 8.08984 9.70703 7.26953C11.8672 5.19141 14.7656 5.02734 15.5586 5ZM7.875 8.03516C7.54688 7.51562 7.13672 7.05078 6.64453 6.64062C6.15234 6.12109 5.60547 5.73828 5.03125 5.41016C5.49609 3.49609 6.45312 1.77344 7.68359 0.707031C7.79297 0.625 7.98438 0.625 8.09375 0.707031C9.32422 1.77344 10.2812 3.49609 10.7461 5.41016C10.1719 5.73828 9.625 6.14844 9.10547 6.66797C8.64062 7.05078 8.23047 7.51562 7.875 8.03516Z" fill="#BD95C5"/>
</svg>
