<svg width="30" height="30" viewBox="0 0 30 30" fill="none" xmlns="http://www.w3.org/2000/svg">
<path d="M28.1739 9.94525C28.1739 9.94525 28.1739 9.94525 28.1739 9.87004C27.149 6.97593 25.2895 4.47723 22.8468 2.71195C20.404 0.946669 17.496 0 14.5161 0C11.5362 0 8.62822 0.946669 6.1855 2.71195C3.74278 4.47723 1.88322 6.97593 0.858382 9.87004C0.858382 9.87004 0.858382 9.87004 0.858382 9.94525C-0.286127 13.2111 -0.286127 16.7889 0.858382 20.0547C0.858382 20.0547 0.858382 20.0547 0.858382 20.13C1.88322 23.0241 3.74278 25.5228 6.1855 27.288C8.62822 29.0533 11.5362 30 14.5161 30C17.496 30 20.404 29.0533 22.8468 27.288C25.2895 25.5228 27.149 23.0241 28.1739 20.13C28.1739 20.13 28.1739 20.13 28.1739 20.0547C29.3184 16.7889 29.3184 13.2111 28.1739 9.94525ZM3.22922 18.0088C2.72484 16.0368 2.72484 13.9632 3.22922 11.9912H5.93458C5.70191 13.9899 5.70191 16.0101 5.93458 18.0088H3.22922ZM4.42191 21.0176H6.4582C6.7996 22.3592 7.28758 23.6563 7.9127 24.8838C6.48627 23.8788 5.29387 22.5581 4.42191 21.0176ZM6.4582 8.98245H4.42191C5.28133 7.44659 6.45848 6.12631 7.86907 5.11617C7.25898 6.34562 6.78567 7.64267 6.4582 8.98245ZM13.0325 26.5838C11.2461 25.2279 9.9914 23.2519 9.49811 21.0176H13.0325V26.5838ZM13.0325 18.0088H8.87267C8.60125 16.0127 8.60125 13.9873 8.87267 11.9912H13.0325V18.0088ZM13.0325 8.98245H9.49811C9.9914 6.74808 11.2461 4.77214 13.0325 3.41621V8.98245ZM24.5522 8.98245H22.5159C22.1745 7.64077 21.6865 6.34366 21.0614 5.11617C22.4878 6.1212 23.6802 7.44186 24.5522 8.98245ZM15.9415 3.41621C17.728 4.77214 18.9827 6.74808 19.476 8.98245H15.9415V3.41621ZM15.9415 26.5838V21.0176H19.476C18.9827 23.2519 17.728 25.2279 15.9415 26.5838ZM20.1014 18.0088H15.9415V11.9912H20.1014C20.3728 13.9873 20.3728 16.0127 20.1014 18.0088ZM21.105 24.8838C21.7301 23.6563 22.2181 22.3592 22.5595 21.0176H24.5958C23.7238 22.5581 22.5314 23.8788 21.105 24.8838ZM25.7449 18.0088H23.0395C23.1578 17.0106 23.2161 16.0057 23.214 15C23.2156 13.9943 23.1573 12.9895 23.0395 11.9912H25.7449C26.2492 13.9632 26.2492 16.0368 25.7449 18.0088Z" fill="#9F7BA8"/>
</svg>
