<svg width="30" height="30" viewBox="0 0 30 30" fill="none" xmlns="http://www.w3.org/2000/svg">
<path d="M15.0061 0C6.73598 0 0 6.73598 0 15.0061C0 23.2762 6.73598 30 15.0061 30C23.2762 30 30 23.2762 30 15.0061C30 6.73598 23.2762 0 15.0061 0ZM18.9346 3.13014C21.5296 3.98581 23.7437 5.66663 25.2706 7.86441C24.4645 7.99134 23.4582 8.13796 22.3114 8.2746C21.3717 6.15814 20.1068 4.43379 18.9346 3.13014ZM11.0605 3.13258C9.88966 4.43536 8.62723 6.15872 7.68861 8.27216C6.54329 8.13555 5.53891 7.98873 4.73427 7.86197C6.26024 5.66914 8.47115 3.98939 11.0605 3.13258ZM13.7487 3.94319V8.73118C12.5843 8.70094 11.4325 8.63159 10.3378 8.54073C11.352 6.55158 12.6714 5.00249 13.7487 3.94319ZM16.2513 3.94319C17.3288 5.00264 18.6504 6.55119 19.6647 8.54073C18.5684 8.6316 17.4171 8.70116 16.2513 8.73118V3.94319ZM3.45731 10.1937C4.26247 10.3308 5.43009 10.5134 6.82673 10.6893C6.4648 12.0132 6.24807 13.4547 6.24807 15.0061C6.24807 16.5546 6.46358 17.9893 6.82429 19.3107C5.42617 19.4868 4.25727 19.6692 3.45243 19.8063C2.83935 18.3294 2.5002 16.7087 2.5002 15.0061C2.5002 13.2998 2.84172 11.674 3.45731 10.1937ZM26.5451 10.1937C27.1599 11.674 27.4998 13.2998 27.4998 15.0061C27.4998 16.7087 27.1622 18.3294 26.55 19.8063C25.7449 19.669 24.5754 19.487 23.1757 19.3107C23.5365 17.9892 23.7544 16.5547 23.7544 15.0061C23.7544 13.4546 23.5352 12.0133 23.1733 10.6893C24.5715 10.5132 25.7397 10.331 26.5451 10.1937ZM9.35379 10.9677C10.7343 11.0961 12.2277 11.1942 13.7487 11.2314V18.7686C12.2267 18.8058 10.7326 18.9062 9.35135 19.0348C8.97754 17.8071 8.74827 16.4627 8.74827 15.0061C8.74827 13.5466 8.97865 12.1979 9.35379 10.9677ZM20.6487 10.9677C21.0237 12.1978 21.2517 13.5467 21.2517 15.0061C21.2517 16.4617 21.0244 17.8053 20.6511 19.0323C19.2694 18.9037 17.7743 18.8055 16.2513 18.7686V11.2314C17.7734 11.1945 19.2677 11.0962 20.6487 10.9677ZM13.7487 21.2688V26.0592C12.67 25 11.3476 23.4508 10.3329 21.4593C11.4291 21.3682 12.5825 21.2991 13.7487 21.2688ZM16.2513 21.2688C17.418 21.2989 18.5701 21.3683 19.6671 21.4593C18.6524 23.4507 17.33 25 16.2513 26.0592V21.2688ZM22.3138 21.7278C23.462 21.8647 24.4692 22.0086 25.2755 22.1356C23.7488 24.3345 21.5339 26.0167 18.9371 26.8723C20.1096 25.5692 21.3746 23.8443 22.3138 21.7278ZM7.68617 21.7303C8.62408 23.843 9.8872 25.5653 11.058 26.8674C8.46712 26.0106 6.25496 24.3317 4.72939 22.138C5.53424 22.0112 6.53956 21.8671 7.68617 21.7303Z" fill="#F9F8F6"/>
</svg>
