<svg width="20" height="20" viewBox="0 0 20 20" fill="none" xmlns="http://www.w3.org/2000/svg">
<path d="M19.6094 7.96094C19.7656 7.84375 20 7.96094 20 8.15625V16.125C20 17.1797 19.1406 18 18.125 18H1.875C0.820312 18 0 17.1797 0 16.125V8.15625C0 7.96094 0.195312 7.84375 0.351562 7.96094C1.25 8.66406 2.38281 9.52344 6.36719 12.4141C7.1875 13 8.59375 14.2891 10 14.2891C11.3672 14.2891 12.8125 13 13.5938 12.4141C17.5781 9.52344 18.7109 8.66406 19.6094 7.96094ZM10 13C9.0625 13.0391 7.77344 11.8672 7.10938 11.3984C1.91406 7.64844 1.52344 7.29688 0.351562 6.35938C0.117188 6.20312 0 5.92969 0 5.61719V4.875C0 3.85938 0.820312 3 1.875 3H18.125C19.1406 3 20 3.85938 20 4.875V5.61719C20 5.92969 19.8438 6.20312 19.6094 6.35938C18.4375 7.29688 18.0469 7.64844 12.8516 11.3984C12.1875 11.8672 10.8984 13.0391 10 13Z" fill="#3B3A32"/>
</svg>
