<svg width="32" height="32" viewBox="0 0 32 32" fill="none" xmlns="http://www.w3.org/2000/svg">
<rect width="32" height="32" rx="16" fill="#3E3D35"/>
<path d="M15.9994 21.6392C15.2835 21.6392 14.6471 21.5166 14.0903 21.2713C13.5368 21.026 13.0993 20.6847 12.7778 20.2472C12.4563 19.8097 12.2856 19.3042 12.2657 18.7308H14.135C14.1516 19.0059 14.2427 19.2462 14.4085 19.4517C14.5742 19.6539 14.7946 19.8113 15.0697 19.924C15.3448 20.0367 15.653 20.093 15.9944 20.093C16.359 20.093 16.6821 20.0301 16.9639 19.9041C17.2456 19.7749 17.466 19.5959 17.6251 19.3672C17.7842 19.1385 17.8621 18.875 17.8588 18.5767C17.8621 18.2685 17.7825 17.9967 17.6201 17.7614C17.4577 17.526 17.2224 17.3421 16.9142 17.2095C16.6092 17.0769 16.2413 17.0107 15.8105 17.0107H14.9106V15.5888H15.8105C16.1651 15.5888 16.475 15.5275 16.7401 15.4048C17.0086 15.2822 17.2191 15.1098 17.3715 14.8878C17.524 14.6624 17.5986 14.4022 17.5953 14.1072C17.5986 13.8189 17.5339 13.5687 17.4014 13.3565C17.2721 13.1411 17.0882 12.9737 16.8495 12.8544C16.6142 12.7351 16.3374 12.6754 16.0193 12.6754C15.7077 12.6754 15.4194 12.7318 15.1542 12.8445C14.8891 12.9571 14.6753 13.1179 14.5129 13.3267C14.3505 13.5322 14.2643 13.7775 14.2544 14.0625H12.4795C12.4927 13.4924 12.6568 12.992 12.9717 12.5611C13.2899 12.1269 13.7141 11.7888 14.2444 11.5469C14.7747 11.3016 15.3696 11.179 16.0292 11.179C16.7087 11.179 17.2986 11.3066 17.7991 11.5618C18.3029 11.8137 18.6923 12.1534 18.9674 12.581C19.2425 13.0085 19.3801 13.4808 19.3801 13.9979C19.3834 14.5713 19.2143 15.0518 18.873 15.4396C18.5349 15.8274 18.0908 16.081 17.5406 16.2003V16.2798C18.2565 16.3793 18.805 16.6444 19.1862 17.0753C19.5706 17.5028 19.7612 18.0348 19.7579 18.6712C19.7579 19.2412 19.5955 19.7517 19.2707 20.2024C18.9492 20.6499 18.5051 21.0012 17.9383 21.2564C17.3749 21.5116 16.7285 21.6392 15.9994 21.6392Z" fill="#F9F8F6"/>
</svg>
