<svg width="31" height="30" viewBox="0 0 31 30" fill="none" xmlns="http://www.w3.org/2000/svg">
<rect width="31" height="30" rx="15" fill="#9F7BA8"/>
<path d="M11.7129 20.5V19.0344L15.6012 15.2227C15.973 14.8471 16.2829 14.5135 16.5309 14.2219C16.7788 13.9302 16.9647 13.6477 17.0887 13.3742C17.2126 13.1008 17.2746 12.8091 17.2746 12.4992C17.2746 12.1456 17.1944 11.843 17.034 11.5914C16.8736 11.3362 16.653 11.1393 16.3723 11.0008C16.0915 10.8622 15.7725 10.793 15.4152 10.793C15.047 10.793 14.7243 10.8695 14.4473 11.0227C14.1702 11.1721 13.9551 11.3854 13.802 11.6625C13.6525 11.9396 13.5777 12.2695 13.5777 12.6523H11.6473C11.6473 11.9414 11.8095 11.3234 12.134 10.7984C12.4585 10.2734 12.9051 9.86693 13.4738 9.57891C14.0462 9.29089 14.7025 9.14687 15.4426 9.14687C16.1936 9.14687 16.8535 9.28724 17.4223 9.56797C17.991 9.8487 18.4322 10.2333 18.7457 10.7219C19.0629 11.2104 19.2215 11.7682 19.2215 12.3953C19.2215 12.8146 19.1413 13.2266 18.9809 13.6312C18.8204 14.0359 18.5379 14.4844 18.1332 14.9766C17.7322 15.4688 17.1689 16.0648 16.4434 16.7648L14.5129 18.7281V18.8047H19.391V20.5H11.7129Z" fill="white"/>
</svg>
