<svg width="24" height="25" viewBox="0 0 24 25" fill="none" xmlns="http://www.w3.org/2000/svg">
<path d="M21.8438 3.9375C22.6875 4.3125 23.25 5.10938 23.25 6C23.25 16.4062 16.875 22.1719 12.8438 23.8594C12.2812 24.0938 11.6719 24.0938 11.1094 23.8594C6.09375 21.75 0.75 15.3281 0.75 6C0.75 5.10938 1.26562 4.3125 2.10938 3.9375L11.1094 0.1875C11.3906 0.09375 11.6719 0.046875 12 0.046875C12.2812 0.046875 12.5625 0.09375 12.8438 0.1875L21.8438 3.9375ZM12 20.9531C16.3594 18.75 20.0625 13.5938 20.2031 6.51562L12 3.09375V20.9531Z" fill="#BD95C5"/>
</svg>
