<svg width="15" height="15" viewBox="0 0 15 15" fill="none" xmlns="http://www.w3.org/2000/svg">
<path d="M13.3929 1.875C14.2634 1.875 15 2.51953 15 3.28125V13.5938C15 14.3848 14.2634 15 13.3929 15H1.60714C0.703125 15 0 14.3848 0 13.5938V3.28125C0 2.51953 0.703125 1.875 1.60714 1.875H3.21429V0.351562C3.21429 0.175781 3.3817 0 3.61607 0H4.95536C5.15625 0 5.35714 0.175781 5.35714 0.351562V1.875H9.64286V0.351562C9.64286 0.175781 9.81027 0 10.0446 0H11.3839C11.5848 0 11.7857 0.175781 11.7857 0.351562V1.875H13.3929ZM13.192 13.5938C13.2924 13.5938 13.3929 13.5352 13.3929 13.418V4.6875H1.60714V13.418C1.60714 13.5352 1.67411 13.5938 1.80804 13.5938H13.192ZM11.4174 7.73438L6.62946 11.8652C6.49554 12.0117 6.22768 12.0117 6.06027 11.8652L3.54911 9.63863C3.41518 9.52144 3.41518 9.28711 3.54911 9.14062L4.3192 8.49609C4.48661 8.34961 4.72098 8.34961 4.88839 8.49609L6.36161 9.78516L10.0781 6.5625C10.2455 6.41602 10.5134 6.41602 10.6473 6.5625L11.4174 7.23633C11.5513 7.38281 11.5513 7.58789 11.4174 7.73438Z" fill="#3E3D35"/>
</svg>
