<svg width="30" height="36" viewBox="0 0 30 36" fill="none" xmlns="http://www.w3.org/2000/svg">
<path d="M15 0.5C21.6202 0.5 27.5 5.44866 27.5 11.4033C27.4999 14.4128 26.1497 17.7697 23.8291 21.7686C21.5983 25.6126 18.5192 29.9737 15 35.1152C11.4808 29.9737 8.40171 25.6126 6.1709 21.7686C3.85032 17.7697 2.5001 14.4128 2.5 11.4033C2.5 5.4487 8.3814 0.5 15 0.5ZM15 1C8.73155 1 3.125 5.78886 3.125 11.4033C3.12508 14.1234 4.19517 17.0096 6.13965 20.5059C8.08564 24.0048 10.9455 28.1789 14.5879 33.4766L15 34.0762L15.4121 33.4766C19.0123 28.2456 21.8716 24.0721 23.8281 20.5566C25.7826 17.0448 26.8749 14.1244 26.875 11.4033C26.875 5.78886 21.2685 1 15 1ZM15 8C17.4549 8 19.375 9.82757 19.375 12C19.375 14.1724 17.4549 16 15 16C12.5451 16 10.625 14.1724 10.625 12C10.625 9.82757 12.5451 8 15 8ZM15 8.5C12.9683 8.5 11.25 10.0309 11.25 12C11.25 13.9691 12.9683 15.5 15 15.5C17.0317 15.5 18.75 13.9691 18.75 12C18.75 10.0309 17.0317 8.5 15 8.5Z" fill="#3B3A32" stroke="#3B3A32"/>
</svg>
