<svg width="30" height="30" viewBox="6 6 18.5 18.5" fill="none" xmlns="http://www.w3.org/2000/svg">
<path d="M21.0938 9.32812C22.7344 10.9688 23.75 13.1172 23.75 15.4609C23.75 20.2266 19.7656 24.1328 14.9609 24.1328C13.5156 24.1328 12.1094 23.7422 10.8203 23.0781L6.25 24.25L7.46094 19.7578C6.71875 18.4688 6.28906 16.9844 6.28906 15.4219C6.28906 10.6562 10.1953 6.75 14.9609 6.75C17.3047 6.75 19.4922 7.6875 21.0938 9.32812ZM14.9609 22.6484C18.9453 22.6484 22.2656 19.4062 22.2656 15.4609C22.2656 13.5078 21.4453 11.7109 20.0781 10.3438C18.7109 8.97656 16.9141 8.23438 15 8.23438C11.0156 8.23438 7.77344 11.4766 7.77344 15.4219C7.77344 16.7891 8.16406 18.1172 8.86719 19.2891L9.0625 19.5625L8.32031 22.2188L11.0547 21.4766L11.2891 21.6328C12.4219 22.2969 13.6719 22.6484 14.9609 22.6484ZM18.9453 17.2578C19.1406 17.375 19.2969 17.4141 19.3359 17.5312C19.4141 17.6094 19.4141 18.0391 19.2188 18.5469C19.0234 19.0547 18.1641 19.5234 17.7734 19.5625C17.0703 19.6797 16.5234 19.6406 15.1562 19.0156C12.9688 18.0781 11.5625 15.8906 11.4453 15.7734C11.3281 15.6172 10.5859 14.6016 10.5859 13.5078C10.5859 12.4531 11.1328 11.9453 11.3281 11.7109C11.5234 11.4766 11.7578 11.4375 11.9141 11.4375C12.0312 11.4375 12.1875 11.4375 12.3047 11.4375C12.4609 11.4375 12.6172 11.3984 12.8125 11.8281C12.9688 12.2578 13.4375 13.3125 13.4766 13.4297C13.5156 13.5469 13.5547 13.6641 13.4766 13.8203C13.0859 14.6406 12.6172 14.6016 12.8516 14.9922C13.7109 16.4375 14.5312 16.9453 15.8203 17.5703C16.0156 17.6875 16.1328 17.6484 16.2891 17.5312C16.4062 17.375 16.8359 16.8672 16.9531 16.6719C17.1094 16.4375 17.2656 16.4766 17.4609 16.5547C17.6562 16.6328 18.7109 17.1406 18.9453 17.2578Z" fill="#3E3D35"/>
</svg>
